<svg width="29" height="54" viewBox="0 0 29 54" fill="none" xmlns="http://www.w3.org/2000/svg">
<path d="M27.0748 0.689614L20.3267 0.678711C12.7454 0.678711 7.84601 5.74044 7.84601 13.5748V19.5208H1.06108C0.474778 19.5208 0 19.9994 0 20.5898V29.2049C0 29.7953 0.475319 30.2734 1.06108 30.2734H7.84601V52.0118C7.84601 52.6022 8.32079 53.0803 8.90709 53.0803H17.7595C18.3458 53.0803 18.8206 52.6017 18.8206 52.0118V30.2734H26.7537C27.34 30.2734 27.8148 29.7953 27.8148 29.2049L27.8181 20.5898C27.8181 20.3063 27.706 20.0349 27.5073 19.8342C27.3086 19.6336 27.038 19.5208 26.7564 19.5208H18.8206V14.4803C18.8206 12.0577 19.3939 10.8278 22.5278 10.8278L27.0737 10.8262C27.6594 10.8262 28.1342 10.3475 28.1342 9.75766V1.75811C28.1342 1.1688 27.66 0.690704 27.0748 0.689614Z" fill="#F6CC68"/>
</svg>
