<svg width="57" height="46" viewBox="0 0 57 46" fill="none" xmlns="http://www.w3.org/2000/svg">
<path d="M56.1514 6.09572C54.0817 6.99824 51.8763 7.59647 49.577 7.88694C51.9424 6.48301 53.7478 4.27683 54.5965 1.61767C52.3911 2.92477 49.9562 3.84805 47.3612 4.36328C45.2671 2.14673 42.2825 0.773926 39.0266 0.773926C32.7096 0.773926 27.6239 5.87095 27.6239 12.1195C27.6239 13.0185 27.7005 13.883 27.8883 14.706C18.4023 14.2461 10.0086 9.72657 4.3699 2.84178C3.38548 4.53964 2.80804 6.48301 2.80804 8.57507C2.80804 12.5033 4.84299 15.9855 7.87627 18.0015C6.04308 17.9669 4.24468 17.4378 2.72108 16.6044C2.72108 16.639 2.72108 16.684 2.72108 16.7289C2.72108 22.2409 6.67617 26.8192 11.8627 27.8739C10.9339 28.1263 9.92165 28.2474 8.87113 28.2474C8.14064 28.2474 7.40319 28.2059 6.71096 28.0537C8.18934 32.5456 12.3845 35.848 17.3727 35.9552C13.4906 38.9739 8.56154 40.7928 3.22547 40.7928C2.28974 40.7928 1.39227 40.7513 0.494812 40.6372C5.54913 43.8773 11.5392 45.7273 17.9988 45.7273C38.9953 45.7273 50.4745 28.4376 50.4745 13.4508C50.4745 12.9494 50.4571 12.4653 50.4327 11.9846C52.6972 10.387 54.6 8.3918 56.1514 6.09572Z" fill="#F6CC68"/>
</svg>
