<svg width="70" height="40" viewBox="0 0 70 40" fill="none" xmlns="http://www.w3.org/2000/svg">
<path fill-rule="evenodd" clip-rule="evenodd" d="M60.3063 24.9422C62.6104 27.175 65.0423 29.2758 67.1088 31.7338C68.0216 32.8261 68.8859 33.9533 69.547 35.2209C70.4838 37.0229 69.6353 39.0059 68.0075 39.1135L57.8884 39.1089C55.2785 39.3239 53.1965 38.281 51.4459 36.5098C50.0449 35.0933 48.7475 33.5858 47.4003 32.1216C46.848 31.5231 46.27 30.96 45.5794 30.5149C44.198 29.6248 42.999 29.8974 42.2096 31.3274C41.4056 32.7819 41.2232 34.3925 41.1443 36.0135C41.0359 38.3786 40.3156 39.0004 37.9221 39.1087C32.8069 39.3481 27.9523 38.58 23.4425 36.0187C19.4666 33.7607 16.3834 30.5731 13.6998 26.9643C8.4748 19.9374 4.4735 12.2159 0.877284 4.27803C0.0678043 2.48963 0.659794 1.52963 2.64778 1.49565C5.94891 1.43199 9.24959 1.43653 12.5546 1.49112C13.8963 1.5106 14.7845 2.27443 15.3025 3.53254C17.0886 7.89153 19.2739 12.0387 22.0171 15.8828C22.7476 16.9062 23.4925 17.9297 24.5532 18.65C25.7267 19.4476 26.6202 19.1833 27.1722 17.8857C27.5225 17.063 27.6759 16.1768 27.7549 15.2957C28.0164 12.2641 28.0509 9.23776 27.5922 6.21684C27.3105 4.33149 26.2407 3.11098 24.3453 2.75421C23.3782 2.57231 23.5222 2.21509 23.9905 1.66713C24.8038 0.722071 25.5688 0.133789 27.0937 0.133789H38.5298C40.3302 0.486486 40.73 1.28928 40.9765 3.08743L40.9863 15.6964C40.9667 16.3925 41.3366 18.4582 42.5998 18.9189C43.6108 19.2469 44.2772 18.4441 44.8838 17.8078C47.6219 14.9233 49.5761 11.5143 51.322 7.9844C52.0968 6.43227 52.7629 4.82033 53.4085 3.20975C53.8869 2.01461 54.6375 1.42656 55.9938 1.45261L67.0004 1.46235C67.3267 1.46235 67.6569 1.46711 67.973 1.52079C69.8277 1.83453 70.3359 2.62645 69.7631 4.42414C68.8605 7.24458 67.1044 9.59499 65.3873 11.9563C63.5518 14.4772 61.5887 16.9119 59.7684 19.4478C58.0961 21.7636 58.2289 22.9309 60.3063 24.9422Z" fill="#F6CC68"/>
</svg>
