<svg width="66" height="68" viewBox="0 0 66 68" fill="none" xmlns="http://www.w3.org/2000/svg">
<path d="M63.9152 34.8757C63.538 33.3938 62.7018 32.1511 61.4094 31.1471C60.1158 30.143 58.6271 29.5528 56.9414 29.377C51.5958 28.8749 43.5335 28.624 32.7536 28.624C21.9741 28.624 13.9262 28.875 8.60905 29.377C6.89529 29.5528 5.39906 30.143 4.12019 31.1471C2.84163 32.1515 1.99903 33.3943 1.59207 34.8757C0.836783 37.7889 0.458984 42.1828 0.458984 48.0586C0.458984 54.0344 0.836783 58.4288 1.59207 61.2414C1.97033 62.7222 2.80576 63.9659 4.09867 64.9696C5.39158 65.974 6.88064 66.5514 8.56554 66.7022C13.9121 67.2295 21.975 67.4932 32.7539 67.4932C43.5321 67.4932 51.5965 67.2295 56.9411 66.7022C58.6268 66.5514 60.1082 65.974 61.3871 64.9696C62.6658 63.966 63.5084 62.7222 63.9149 61.2414C64.6702 58.3282 65.0484 53.9342 65.0484 48.0586C65.0483 42.0826 64.67 37.6881 63.9152 34.8757ZM18.8955 38.6805H14.2324V60.1109H9.87448V38.6805H5.29816V35.1402H18.8957L18.8955 38.6805ZM30.6622 60.1109H26.7835V58.0766C25.2146 59.6088 23.7323 60.3745 22.3377 60.3745C21.0014 60.3745 20.1587 59.9096 19.8105 58.9809C19.5783 58.3783 19.4615 57.4613 19.4615 56.2312V41.5048H23.3403V55.2145C23.3403 56.0176 23.3549 56.4573 23.3842 56.5327C23.4714 57.06 23.7762 57.3236 24.2995 57.3236C25.0838 57.3236 25.9124 56.7963 26.7837 55.7417V41.5048H30.6624L30.6622 60.1109ZM45.48 54.5364C45.48 56.3693 45.3495 57.6256 45.0892 58.3038C44.5941 59.6839 43.5634 60.3745 41.9947 60.3745C40.5999 60.3745 39.2492 59.6839 37.941 58.3038V60.1113H34.0629V35.1402H37.941V43.3133C39.191 41.9581 40.5415 41.28 41.9947 41.28C43.5634 41.28 44.5941 41.9833 45.0892 43.3891C45.3493 44.0419 45.48 45.2847 45.48 47.1177V54.5364ZM60.2106 51.4484H52.4098V54.7252C52.4098 56.4578 53.0775 57.3236 54.4142 57.3236C55.3727 57.3236 55.9543 56.8722 56.1574 55.9675C56.2148 55.7165 56.2446 54.9509 56.2446 53.6705H60.2105V54.1599C60.2105 55.3906 60.1807 56.1184 60.1232 56.3449C60.0366 57.022 59.7324 57.7001 59.2081 58.3782C58.1621 59.7091 56.5919 60.3745 54.5003 60.3745C52.4965 60.3745 50.9273 59.734 49.7938 58.454C48.9516 57.5249 48.5306 56.0685 48.5306 54.0848V47.5685C48.5306 45.5849 48.937 44.1285 49.7498 43.1994C50.8835 41.9191 52.4379 41.2789 54.4142 41.2789C56.3612 41.2789 57.9022 41.9191 59.0337 43.1994C59.8193 44.1285 60.2106 45.5849 60.2106 47.5685V51.4484Z" fill="#F6CC68"/>
<path d="M39.8999 44.3295C39.2313 44.3295 38.5782 44.6066 37.9388 45.1583V56.4948C38.5781 57.047 39.2313 57.3231 39.8999 57.3231C41.0323 57.3231 41.6003 56.4825 41.6003 54.7994V46.8531C41.6002 45.1705 41.0336 44.3295 39.8999 44.3295Z" fill="#F6CC68"/>
<path d="M54.3685 44.3295C53.0611 44.3295 52.4075 45.1837 52.4075 46.89V48.6227H56.3294V46.89C56.3294 45.1827 55.6755 44.3295 54.3685 44.3295Z" fill="#F6CC68"/>
<path d="M16.3695 15.028V25.2353H20.7274V15.028L25.9999 0H21.5547L18.5919 9.90576L15.4973 0H10.8779C11.6915 2.1094 12.6358 4.45692 13.7109 7.04335C15.0766 10.5082 15.9623 13.1703 16.3695 15.028Z" fill="#F6CC68"/>
<path d="M31.8382 25.4965C33.843 25.4965 35.3824 24.8562 36.4575 23.5757C37.2714 22.6465 37.6778 21.1649 37.6778 19.1314V12.5399C37.6778 10.5314 37.2704 9.06206 36.4575 8.13295C35.3824 6.8524 33.843 6.21206 31.8382 6.21206C29.891 6.21206 28.3655 6.8524 27.2618 8.13295C26.4487 9.06206 26.0419 10.5314 26.0419 12.5399V19.1313C26.0419 21.1397 26.4482 22.6215 27.2618 23.5755C28.3659 24.8562 29.8909 25.4965 31.8382 25.4965ZM29.9638 11.8618C29.9638 10.1292 30.5886 9.26284 31.8382 9.26284C33.0877 9.26284 33.7119 10.1292 33.7119 11.8618V19.7711C33.7119 21.5293 33.0877 22.4075 31.8382 22.4075C30.5886 22.4075 29.9638 21.5288 29.9638 19.7711V11.8618Z" fill="#F6CC68"/>
<path d="M43.8235 25.4988C45.2771 25.4988 46.7738 24.7203 48.3133 23.1631V25.2347H52.2791V6.44039H48.3133V20.7903C47.4413 21.8702 46.6138 22.4096 45.8283 22.4096C45.3049 22.4096 44.9998 22.1335 44.9131 21.5811C44.8839 21.5309 44.8693 21.0911 44.8693 20.2627V6.44039H40.9034V21.2804C40.9034 22.5606 41.0204 23.5019 41.2523 24.1049C41.6304 25.034 42.4872 25.4988 43.8235 25.4988Z" fill="#F6CC68"/>
</svg>
